<svg xmlns="http://www.w3.org/2000/svg" viewBox="0 0 836.29 283.55"><g id="Layer_2" data-name="Layer 2"><g id="Layer_1-2" data-name="Layer 1"><path d="M15.75,173.49c9.43,7.83,16.17,7.83,25.82-32.24,7.82-32.9,13-53,18.51-78.66.69-3.56-.18-4.82-2.7-4.82H53.12c-6.6,0-5.34-8.17.53-8.17h4.82c3.17,0,5.34-2,6.56-5.87C75.9,7.23,106.88-5.42,120.22,2.06c9.95,5.52.17,21.55-11.38,12.47-11.39-8.91-20-6.21-26.51,19.95l-2.52,9.78c-.87,3.73.34,5.51,4.3,5.51,2.65,0,6.73,0,12.08-.17,7-.17,5.69,8.34-.35,8.17S85.5,57.6,81.07,57.6c-3,0-4.83,1.43-5.87,5.69-5.69,24.94-9.43,39.54-16,67.09-11.91,50.41-40.24,61.06-53.24,56.28C-7.24,181.84,4,163.5,15.75,173.49Z"/><path d="M104.54,94.45c0-27.42,19.77-47.33,46.28-47.33S196.4,67,196.4,94.27c0,27.6-19.6,47.15-46.1,47.15C123.61,141.42,104.54,121.69,104.54,94.45Zm47.89,40.41c13.51,0,26.33-13.34,25.29-40.24-1.09-27.2-15.52-40.93-29.21-40.93-13.51,0-26.33,13.16-25.29,39.71C124.31,121,138.74,134.86,152.43,134.86Z"/><path d="M216.65,131.3c10-2.48,10.34-3.57,10.69-21.17.17-9.64.17-19.07,0-28.68-.18-11.9-2.13-13.69-10.13-17.42-4.13-2-3.78-5.7-.21-7.3,7.29-3.39,12.47-6.09,18.16-8.74s7.82-.35,7.82,4.44c0,5,3.56,7.12,8.56,3.56,7-5,13.34-8.87,20.64-8.87,20.47,0,11.39,29.9-6.56,17.08-11.43-8-22.25.35-22.64,20-.17,8.69-.17,17.25,0,26,.39,17.78.74,18.12,15.86,21.17,5.35,1.08,4.09,7.47-.91,7.47-15-.17-29.33-.17-40.72,0C212.91,138.77,211.3,132.73,216.65,131.3Z"/><path d="M310,121c0-18.87.17-37.9.17-53.54,0-7.13-1.61-8.39-8-8.39-5.13,0-5.52-4.65-2.82-7a242,242,0,0,0,19.38-18.86c3.21-3.57,7.3-1.61,7.3,2.3V46.38c0,2.31,1.61,3.39,4.65,3.39,5.69,0,11.21,0,16.9-.17a5,5,0,1,1,0,9.95c-5.69-.17-11.21-.17-16.9-.17-3,0-4.83,1.43-4.83,4.26,0,18.51-.17,36.67-.17,54.66,0,13.17,12.82,15.3,24,6,3.74-3,6.78,0,4.61,3.91a27,27,0,0,1-23.12,13.17C316.33,141.42,310,131.47,310,121Z"/><path d="M438.8,136.12c0-5.34-3.91-6.6-8.22-3.74C405.86,148.9,379.7,142,379.7,116.52V68.63c0-9.25-.87-10.47-9.78-11.38-5.69-.52-5.69-7.3-.18-7.82,6.57-.52,12.09-1.26,18.34-2.13,5.52-.92,7.26.34,7.26,5.34v57.49c0,19.39,18,28.47,34.72,16.17,6.43-4.61,8.74-13.17,8.74-21.9V68.63c0-9.25-.92-10.47-9.78-11.38-5.69-.52-5.69-7.3-.18-7.82,6.57-.52,12.09-1.26,18.3-2.13,5.52-.92,7.3.34,7.3,5.34v61.58c0,8.69,2,11,11,11,5.69,0,5.86,5.86,1.61,7.47-7.3,2.65-14,5-20.3,7.65C441.1,142.86,438.8,140.9,438.8,136.12Z"/><path d="M486.63,131.3c9.78-2.31,10.52-3.22,10.87-21.17.17-9.64.17-19.07,0-28.68-.18-11.9-2.13-13.69-10.13-17.42-4.13-2-3.78-5.7-.21-7.3,7.3-3.22,12.47-5.87,18.16-8.74,5-2.47,7.82-1.08,7.82,4.44s3.74,7,9.08,3.38c23.25-15.51,50.37-9.6,50,16.73-.17,12.48-.17,25.12,0,37.59.18,17.6.35,18.69,10.69,21.17,5.35,1.26,4.09,7.47-.87,7.47-11.95-.17-23.51-.17-35.46,0-4.43,0-5.86-6-.69-7.47,10-2.48,10.34-3.57,10.69-21.17q.25-16.29,0-32.59c-.35-18.86-18.51-27.07-34.72-15.12-6.22,4.61-8.52,12.25-8.74,21.73-.17,8.69-.17,17.25,0,26,.39,17.6.39,18.69,10.69,21.17,5.35,1.26,4.09,7.47-.87,7.47-12-.17-23.51-.17-35.41,0C482.72,138.77,481.64,132.56,486.63,131.3Z"/><path d="M601.65,94.79c0-29,21.56-47.67,44.89-47.67,19.91,0,35.94,13.87,35.6,34.33,0,4.44-2.13,5.87-6.61,5.87H624.82c-3.74,0-5.69,2.35-5.35,7.13,1.78,24.72,15.3,35.41,31.16,35.41a33.31,33.31,0,0,0,24.73-11c3-3,7.12-.69,5,3.39-8.21,15.13-23.33,19.21-35.24,19.21C619.65,141.42,601.65,122.74,601.65,94.79ZM625,81.11h34c3.74,0,5.52-2.31,5.17-6.61-1.08-15-10.86-20.81-19.94-20.81-9.61,0-20.3,6.43-23.47,21.38C619.82,79,621.78,81.11,625,81.11Z"/><path d="M273.39,257c3.91-11,9.08-24.73,12.82-35.94,3.39-10.17,4.47-19.08-3.39-19.08-11.56,0-33.29,27.25-44.11,62-1.61,5-2.34,7.82-3.22,11.39-1.26,4.65-2.86,6.95-7.3,7.64l-1.26.18c-5.69.91-8.16-1-6.56-6.21,5.52-19,12.43-42.9,16.34-55.89,3-10.17,4.48-19.08-3.34-19.08-11.61,0-33.29,27.25-44.15,62-1.61,5-2.31,7.82-3.22,11.39-1.26,4.65-2.83,6.95-7.3,7.64l-1.22.18c-5.73.91-8.21-1-6.6-6.21,7.12-23.52,12.81-43.07,18.86-66.06,2.3-8.69-4.26-10.86-12.26,2.35-3.21,5.47-9.65,2.3-6.26-3.22,10.17-16.38,17.08-20.81,25.12-20.81,6.39,0,9.95,4.95,9.95,11.38,0,3-.52,5.52-2.13,10.65-1.26,4.3,2.48,5.91,5.35,2,11.73-15.17,22.42-24,31.68-24,10.69,0,15.47,7.08,12.47,22-.91,4.3,2.48,5.91,5.3,2,11.78-15.17,22.47-24,31.72-24,16,0,16.17,14.38,9.61,33.46-4.3,12.25-8.39,22.77-13,35.76-4.82,13.52,3.74,14,11.91.35,2.69-4.61,8.91-1.43,5.87,3.56-10.3,16.73-20.12,21.17-26.34,21.17C267.35,283.55,269,269.68,273.39,257Z"/><path d="M327.82,236.92c0-29,21.56-47.67,44.89-47.67,19.91,0,35.94,13.86,35.59,34.33,0,4.43-2.13,5.86-6.6,5.86H351c-3.73,0-5.69,2.35-5.34,7.13C347.42,261.3,360.94,272,376.8,272a33.34,33.34,0,0,0,24.72-11c3.05-3,7.13-.7,5,3.39-8.21,15.12-23.33,19.21-35.24,19.21C345.81,283.55,327.82,264.86,327.82,236.92Zm23.34-13.69h34c3.74,0,5.52-2.3,5.17-6.61-1.08-15-10.86-20.81-19.94-20.81-9.61,0-20.3,6.43-23.47,21.38C346,221.1,347.94,223.23,351.16,223.23Z"/><path d="M427.68,273.6c9.82-2.83,10.17-3.74,10.52-21.34.17-9.65.17-19.08,0-28.68-.18-11.91-2.13-13.69-10.17-17.43-4.09-2-3.74-5.69-.18-7.3,6.44-2.87,12.13-5.69,18.17-8.73,5.69-2.83,7.82-.35,7.82,4.43,0,5.17,3.39,7.12,9.08,3.39C480,186.73,499.08,186,508.68,199c2.83,3.92,5.87,4.44,11.21.53C543.4,182.12,572.39,187.47,572,215c-.17,12.82-.17,24.94,0,37.24.18,17.6.35,18.68,10.69,21.16,5.35,1.26,4.08,7.48-.91,7.48H546.4c-4.26,0-5.86-5.7-.52-7.3,9.78-2.83,10.13-3.74,10.52-21.34.17-11,.17-21.9,0-32.94-.39-17.65-18-27.25-34.72-14.78-6.22,4.61-8.57,12.26-8.74,21.73-.17,8.69-.17,17.25,0,26,.35,17.6.35,18.68,10.69,21.16,5.35,1.26,4.09,7.48-.91,7.48-11.91-.18-23.47-.18-35.42,0-4.26,0-5.86-5.7-.52-7.3,9.78-2.83,10.17-3.74,10.52-21.34.17-11,.17-22.25,0-33.29-.35-17.64-18.52-26.38-34.72-14.43-6.78,5-8.56,13.52-8.74,21.73-.17,8.69-.17,17.25,0,26,.39,17.6.39,18.68,10.69,21.16,5.35,1.26,4.09,7.48-.87,7.48-12-.18-23.51-.18-35.42,0C423.94,280.9,422.34,275,427.68,273.6Z"/><path d="M601.18,236.57c0-27.42,19.77-47.32,46.28-47.32s45.59,19.9,45.59,47.15c0,27.59-19.6,47.15-46.11,47.15C620.26,283.55,601.18,263.82,601.18,236.57ZM649.07,277c13.52,0,26.33-13.35,25.29-40.25-1.09-27.2-15.51-40.93-29.2-40.93-13.51,0-26.34,13.17-25.29,39.72C621,263.08,635.38,277,649.07,277Z"/><path d="M713.12,273.42c9.78-2.3,10.51-3.22,10.86-21.16.18-9.65.18-19.08,0-28.68-.17-11.91-2.13-13.69-10.12-17.43-4.13-2-3.78-5.69-.22-7.3,6.26-2.87,11-5.17,18.17-8.73,5.69-2.83,7.82-.35,7.82,4.43q-.27,28.88,0,57.71c.39,17.6.39,18.68,10.69,21.16,5.34,1.26,4.08,7.48-.87,7.48-12-.18-23.51-.18-35.42,0C709.21,280.9,708.12,274.68,713.12,273.42Zm17.07-122.33c6.74,0,12.17,5.09,12.17,11.21a12.27,12.27,0,0,1-12.17,12.35A11.89,11.89,0,0,1,718.07,163,12.1,12.1,0,0,1,730.19,151.09Z"/><path d="M769.05,273.42c10-2.48,10.34-3.56,10.69-21.16.17-9.65.17-19.08,0-28.68-.17-11.91-2.13-13.69-10.12-17.43-4.13-2-3.78-5.69-.22-7.3,7.3-3.39,12.47-6.08,18.16-8.73s7.83-.35,7.83,4.43c0,5,3.56,7.12,8.56,3.56,6.95-5,13.34-8.86,20.64-8.86,20.46,0,11.38,29.89-6.56,17.07-11.43-8-22.25.35-22.64,20-.18,8.69-.18,17.25,0,26,.39,17.77.73,18.12,15.86,21.16,5.34,1.09,4.08,7.48-.92,7.48-14.94-.18-29.33-.18-40.71,0C765.31,280.9,763.7,274.85,769.05,273.42Z"/></g></g></svg>