<svg xmlns="http://www.w3.org/2000/svg" viewBox="0 0 1406.32 187.69"><g id="Layer_2" data-name="Layer 2"><g id="Layer_1-2" data-name="Layer 1"><path d="M15.75,173.49c9.43,7.83,16.17,7.83,25.82-32.24,7.82-32.9,13-53,18.51-78.66.69-3.56-.18-4.82-2.7-4.82H53.12c-6.6,0-5.34-8.17.53-8.17h4.82c3.17,0,5.34-2,6.56-5.87C75.9,7.23,106.88-5.42,120.22,2.06c9.95,5.52.17,21.55-11.38,12.47-11.39-8.91-20-6.21-26.51,19.95l-2.52,9.78c-.87,3.73.34,5.51,4.3,5.51,2.65,0,6.73,0,12.08-.17,7-.17,5.69,8.34-.35,8.17S85.5,57.6,81.07,57.6c-3,0-4.83,1.43-5.87,5.69-5.69,24.94-9.43,39.54-16,67.09-11.91,50.41-40.24,61.06-53.24,56.28C-7.24,181.84,4,163.5,15.75,173.49Z"/><path d="M104.54,94.45c0-27.42,19.77-47.33,46.28-47.33S196.4,67,196.4,94.27c0,27.6-19.6,47.15-46.1,47.15C123.61,141.42,104.54,121.69,104.54,94.45Zm47.89,40.41c13.51,0,26.33-13.34,25.29-40.24-1.09-27.2-15.52-40.93-29.21-40.93-13.51,0-26.33,13.16-25.29,39.71C124.31,121,138.74,134.86,152.43,134.86Z"/><path d="M216.65,131.3c10-2.48,10.34-3.57,10.69-21.17.17-9.64.17-19.07,0-28.68-.18-11.9-2.13-13.69-10.13-17.42-4.13-2-3.78-5.7-.21-7.3,7.29-3.39,12.47-6.09,18.16-8.74s7.82-.35,7.82,4.44c0,5,3.56,7.12,8.56,3.56,7-5,13.34-8.87,20.64-8.87,20.47,0,11.39,29.9-6.56,17.08-11.43-8-22.25.35-22.64,20-.17,8.69-.17,17.25,0,26,.39,17.78.74,18.12,15.86,21.17,5.35,1.08,4.09,7.47-.91,7.47-15-.17-29.33-.17-40.72,0C212.91,138.77,211.3,132.73,216.65,131.3Z"/><path d="M310,121c0-18.87.17-37.9.17-53.54,0-7.13-1.61-8.39-8-8.39-5.13,0-5.52-4.65-2.82-7a242,242,0,0,0,19.38-18.86c3.21-3.57,7.3-1.61,7.3,2.3V46.38c0,2.31,1.61,3.39,4.65,3.39,5.69,0,11.21,0,16.9-.17a5,5,0,1,1,0,9.95c-5.69-.17-11.21-.17-16.9-.17-3,0-4.83,1.43-4.83,4.26,0,18.51-.17,36.67-.17,54.66,0,13.17,12.82,15.3,24,6,3.74-3,6.78,0,4.61,3.91a27,27,0,0,1-23.12,13.17C316.33,141.42,310,131.47,310,121Z"/><path d="M438.8,136.12c0-5.34-3.91-6.6-8.22-3.74C405.86,148.9,379.7,142,379.7,116.52V68.63c0-9.25-.87-10.47-9.78-11.38-5.69-.52-5.69-7.3-.18-7.82,6.57-.52,12.09-1.26,18.34-2.13,5.52-.92,7.26.34,7.26,5.34v57.49c0,19.39,18,28.47,34.72,16.17,6.43-4.61,8.74-13.17,8.74-21.9V68.63c0-9.25-.92-10.47-9.78-11.38-5.69-.52-5.69-7.3-.18-7.82,6.57-.52,12.09-1.26,18.3-2.13,5.52-.92,7.3.34,7.3,5.34v61.58c0,8.69,2,11,11,11,5.69,0,5.86,5.86,1.61,7.47-7.3,2.65-14,5-20.3,7.65C441.1,142.86,438.8,140.9,438.8,136.12Z"/><path d="M486.63,131.3c9.78-2.31,10.52-3.22,10.87-21.17.17-9.64.17-19.07,0-28.68-.18-11.9-2.13-13.69-10.13-17.42-4.13-2-3.78-5.7-.21-7.3,7.3-3.22,12.47-5.87,18.16-8.74,5-2.47,7.82-1.08,7.82,4.44s3.74,7,9.08,3.38c23.25-15.51,50.37-9.6,50,16.73-.17,12.48-.17,25.12,0,37.59.18,17.6.35,18.69,10.69,21.17,5.35,1.26,4.09,7.47-.87,7.47-11.95-.17-23.51-.17-35.46,0-4.43,0-5.86-6-.69-7.47,10-2.48,10.34-3.57,10.69-21.17q.25-16.29,0-32.59c-.35-18.86-18.51-27.07-34.72-15.12-6.22,4.61-8.52,12.25-8.74,21.73-.17,8.69-.17,17.25,0,26,.39,17.6.39,18.69,10.69,21.17,5.35,1.26,4.09,7.47-.87,7.47-12-.17-23.51-.17-35.41,0C482.72,138.77,481.64,132.56,486.63,131.3Z"/><path d="M601.65,94.79c0-29,21.56-47.67,44.89-47.67,19.91,0,35.94,13.87,35.6,34.33,0,4.44-2.13,5.87-6.61,5.87H624.82c-3.74,0-5.69,2.35-5.35,7.13,1.78,24.72,15.3,35.41,31.16,35.41a33.31,33.31,0,0,0,24.73-11c3-3,7.12-.69,5,3.39-8.21,15.13-23.33,19.21-35.24,19.21C619.65,141.42,601.65,122.74,601.65,94.79ZM625,81.11h34c3.74,0,5.52-2.31,5.17-6.61-1.08-15-10.86-20.81-19.94-20.81-9.61,0-20.3,6.43-23.47,21.38C619.82,79,621.78,81.11,625,81.11Z"/><path d="M843.42,114.91c3.91-11,9.08-24.72,12.82-35.93,3.39-10.17,4.48-19.08-3.39-19.08-11.56,0-33.29,27.25-44.11,62-1.6,5-2.34,7.82-3.21,11.38-1.26,4.65-2.87,6.95-7.3,7.65l-1.26.17c-5.7.92-8.17-1-6.57-6.21,5.52-19,12.43-42.89,16.34-55.88,3-10.17,4.48-19.08-3.34-19.08-11.6,0-33.29,27.25-44.15,62-1.61,5-2.31,7.82-3.22,11.38-1.26,4.65-2.82,6.95-7.3,7.65l-1.22.17c-5.73.92-8.21-1-6.6-6.21,7.13-23.51,12.82-43.06,18.86-66.05,2.3-8.69-4.26-10.87-12.26,2.34-3.21,5.48-9.64,2.31-6.25-3.21,10.16-16.38,17.07-20.82,25.11-20.82,6.39,0,10,5,10,11.39,0,3-.52,5.52-2.12,10.65-1.26,4.3,2.47,5.91,5.34,2,11.73-15.16,22.42-24,31.68-24,10.69,0,15.47,7.09,12.47,22-.91,4.3,2.48,5.91,5.3,2,11.78-15.16,22.47-24,31.73-24,16,0,16.16,14.39,9.6,33.46-4.3,12.26-8.39,22.78-13,35.77-4.83,13.51,3.73,14,11.9.35,2.7-4.61,8.91-1.44,5.87,3.56C864.8,137,855,141.42,848.77,141.42,837.38,141.42,839,127.56,843.42,114.91Z"/><path d="M897.86,94.79c0-29,21.55-47.67,44.88-47.67,19.91,0,35.94,13.87,35.6,34.33,0,4.44-2.14,5.87-6.61,5.87H921c-3.74,0-5.7,2.35-5.35,7.13,1.79,24.72,15.3,35.41,31.16,35.41a33.31,33.31,0,0,0,24.73-11c3-3,7.12-.69,5,3.39-8.21,15.13-23.33,19.21-35.24,19.21C915.84,141.42,897.86,122.74,897.86,94.79Zm23.33-13.68h34c3.74,0,5.52-2.31,5.17-6.61-1.08-15-10.86-20.81-19.94-20.81-9.61,0-20.3,6.43-23.47,21.38C916,79,918,81.11,921.19,81.11Z"/><path d="M997.71,131.47c9.82-2.82,10.17-3.74,10.52-21.34.17-9.64.17-19.07,0-28.68-.17-11.9-2.13-13.69-10.17-17.42-4.08-2-3.74-5.7-.17-7.3,6.43-2.87,12.12-5.7,18.16-8.74,5.69-2.82,7.82-.35,7.82,4.44,0,5.17,3.39,7.12,9.09,3.38,17.07-11.21,36.15-11.9,45.75,1.09,2.83,3.91,5.87,4.43,11.22.52,23.51-17.42,52.49-12.08,52.14,15.47-.17,12.82-.17,25,0,37.24.18,17.6.35,18.69,10.69,21.17,5.35,1.26,4.09,7.47-.91,7.47h-35.42c-4.26,0-5.86-5.69-.52-7.3,9.78-2.82,10.13-3.74,10.52-21.34.17-11,.17-21.9,0-32.94-.39-17.64-18-27.24-34.72-14.77-6.22,4.61-8.56,12.25-8.74,21.73-.17,8.69-.17,17.25,0,26,.35,17.6.35,18.69,10.69,21.17,5.35,1.26,4.09,7.47-.91,7.47-11.91-.17-23.47-.17-35.42,0-4.26,0-5.86-5.69-.52-7.3,9.78-2.82,10.17-3.74,10.52-21.34.17-11,.17-22.25,0-33.28-.35-17.65-18.51-26.38-34.72-14.43-6.78,5-8.56,13.51-8.74,21.73-.17,8.69-.17,17.25,0,26,.39,17.6.39,18.69,10.69,21.17,5.35,1.26,4.09,7.47-.87,7.47-12-.17-23.5-.17-35.41,0C994,138.77,992.37,132.9,997.71,131.47Z"/><path d="M1171.21,94.45c0-27.42,19.78-47.33,46.28-47.33s45.59,19.91,45.59,47.15c0,27.6-19.6,47.15-46.11,47.15C1190.29,141.42,1171.21,121.69,1171.21,94.45Zm47.89,40.41c13.52,0,26.34-13.34,25.29-40.24-1.08-27.2-15.51-40.93-29.2-40.93-13.51,0-26.33,13.16-25.29,39.71C1191,121,1205.41,134.86,1219.1,134.86Z"/><path d="M1283.15,131.3c9.78-2.31,10.52-3.22,10.86-21.17.18-9.64.18-19.07,0-28.68-.17-11.9-2.12-13.69-10.12-17.42-4.13-2-3.78-5.7-.22-7.3,6.26-2.87,11-5.17,18.17-8.74,5.69-2.82,7.82-.35,7.82,4.44q-.27,28.86,0,57.7c.39,17.6.39,18.69,10.69,21.17,5.34,1.26,4.08,7.47-.87,7.47-12-.17-23.51-.17-35.42,0C1279.24,138.77,1278.15,132.56,1283.15,131.3ZM1300.23,9c6.73,0,12.17,5.08,12.17,11.21a12.27,12.27,0,0,1-12.17,12.34,11.89,11.89,0,0,1-12.13-11.6A12.1,12.1,0,0,1,1300.23,9Z"/><path d="M1339.08,131.3c10-2.48,10.34-3.57,10.69-21.17.18-9.64.18-19.07,0-28.68-.17-11.9-2.13-13.69-10.12-17.42-4.13-2-3.78-5.7-.22-7.3,7.3-3.39,12.47-6.09,18.17-8.74s7.82-.35,7.82,4.44c0,5,3.56,7.12,8.56,3.56,7-5,13.34-8.87,20.64-8.87,20.47,0,11.39,29.9-6.56,17.08-11.43-8-22.25.35-22.64,20-.18,8.69-.18,17.25,0,26,.39,17.78.74,18.12,15.86,21.17,5.34,1.08,4.08,7.47-.91,7.47-14.95-.17-29.34-.17-40.72,0C1335.35,138.77,1333.74,132.73,1339.08,131.3Z"/></g></g></svg>